<?xml version="1.0" standalone="no"?><!DOCTYPE svg PUBLIC "-//W3C//DTD SVG 1.1//EN" "http://www.w3.org/Graphics/SVG/1.1/DTD/svg11.dtd"><svg class="icon" width="200px" height="200.00px" viewBox="0 0 1024 1024" version="1.1" xmlns="http://www.w3.org/2000/svg"><path d="M399.220273 636.688468c-31.937622-9.25193-15.829084-14.968764-36.955821-14.968764-51.527361 0-83.774378 32.748039-83.774378 73.125177 0 40.405084 24.771618 73.155119 76.304967 73.155119 51.561294 0 76.362854-32.750035 76.362854-73.155119L431.157895 475.405474l223.563353-109.687766 0 234.376234c-31.937622-9.249934-12.924756-14.936827-34.047501-14.936827-51.501411 0-82.339181 32.750035-82.339181 73.125177 0 40.40708 22.615828 73.155119 74.147181 73.155119 51.561294 0 74.175127-32.748039 74.175127-73.155119L686.656873 256l-287.438596 146.282292L399.218277 636.688468z" fill="#2c2c2c" /><path d="M512 0C229.250246 0 0 229.218308 0 512S229.250246 1024 512 1024c282.81363 0 512-229.218308 512-512S794.81363 0 512 0zM512 944.00025C273.435945 944.00025 79.99975 750.593996 79.99975 512c0-238.593996 193.436195-432.00025 432.00025-432.00025 238.625934 0 432.00025 193.406253 432.00025 432.00025C944.00025 750.593996 750.625934 944.00025 512 944.00025z" fill="#2c2c2c" /></svg>